<svg xmlns:xlink="http://www.w3.org/1999/xlink"  viewBox="0 0 32 32" xmlns="http://www.w3.org/2000/svg" data-di-res-id="52f6eebc-14d4c467" data-di-rand="1724403772873"><path d="M24 4a2 2 0 012 2v20a2 2 0 01-2 2H8a2 2 0 01-2-2V6a2 2 0 012-2zm-.5 2h-15a.5.5 0 00-.5.5v19a.5.5 0 00.5.5h15a.5.5 0 00.5-.5v-19a.5.5 0 00-.5-.5zm-11 14a.5.5 0 01.5.5v1a.5.5 0 01-.5.5h-1a.5.5 0 01-.5-.5v-1a.5.5 0 01.5-.5zm8 0a.5.5 0 01.5.5v1a.5.5 0 01-.5.5h-5a.5.5 0 01-.5-.5v-1a.5.5 0 01.5-.5zm-8-5a.5.5 0 01.5.5v1a.5.5 0 01-.5.5h-1a.5.5 0 01-.5-.5v-1a.5.5 0 01.5-.5zm8 0a.5.5 0 01.5.5v1a.5.5 0 01-.5.5h-5a.5.5 0 01-.5-.5v-1a.5.5 0 01.5-.5zm-8-5a.5.5 0 01.5.5v1a.5.5 0 01-.5.5h-1a.5.5 0 01-.5-.5v-1a.5.5 0 01.5-.5zm8 0a.5.5 0 01.5.5v1a.5.5 0 01-.5.5h-5a.5.5 0 01-.5-.5v-1a.5.5 0 01.5-.5z" fill="#538316" class="asda-icon__draw" fill-rule="evenodd"></path></svg>