<svg xmlns:xlink="http://www.w3.org/1999/xlink"  viewBox="0 0 24 20" xmlns="http://www.w3.org/2000/svg" data-di-res-id="c15fc2c0-80b2311b" data-di-rand="1724404101562"><path d="M1.678 0A2 2 0 013.61 1.482L4.016 3h18.746a.5.5 0 01.483.63l-2.382 8.888A2 2 0 0118.931 14H6.964l.3 1.119c.498.16.928.471 1.235.88h9.002A2.5 2.5 0 1117.05 18h-8.1a2.5 2.5 0 11-3.7-2.666L1.777 2.371A.5.5 0 001.294 2H.5a.5.5 0 01-.5-.5v-1A.5.5 0 01.5 0h1.178zm19.129 5H4.552l1.876 7h12.12a.5.5 0 00.482-.37L20.807 5z" fill="#3D3D3D" fill-rule="evenodd"></path></svg>