<svg xmlns:xlink="http://www.w3.org/1999/xlink"  viewBox="0 0 32 32" xmlns="http://www.w3.org/2000/svg" data-di-res-id="e9425874-10b9b0b3" data-di-rand="1724404101558"><path d="M16 4c6.627 0 12 5.373 12 12s-5.373 12-12 12S4 22.627 4 16 9.373 4 16 4zm0 2C10.477 6 6 10.477 6 16s4.477 10 10 10 10-4.477 10-10S21.523 6 16 6zm0 13c.564 0 1 .429 1 1s-.436 1-1 1-1-.429-1-1 .436-1 1-1zm.016-9.016c.42 0 .813.058 1.176.174s.68.296.947.54c.269.245.48.556.632.934.153.378.229.822.229 1.334 0 .36-.058.683-.174.968-.115.285-.26.55-.434.794a9.83 9.83 0 01-.361.477l-.192.23a7.358 7.358 0 00-.536.706 3.392 3.392 0 00-.387.776c-.034.098-.046.288-.035.571a.5.5 0 01-.48.519h-1.042a.5.5 0 01-.495-.428c-.06-.407-.073-.677-.04-.81a3.87 3.87 0 01.34-.907c.147-.28.312-.535.497-.768l.528-.671a4.63 4.63 0 00.419-.628c.11-.204.166-.416.166-.637 0-.36-.098-.634-.292-.82-.195-.186-.45-.279-.766-.279-.295 0-.555.076-.782.227a2.99 2.99 0 00-.31.25.5.5 0 01-.689-.022l-.59-.595a.5.5 0 01-.055-.638l.06-.07c.382-.377.705-.641.968-.791a3.37 3.37 0 011.698-.436z" fill="#3d3d3d" class="asda-icon__draw" fill-rule="evenodd"></path></svg>